<?xml version="1.0" encoding="UTF-8"?>
<svg version="1.1" xmlns="http://www.w3.org/2000/svg" width="355" height="355">
<path d="M0 0 C117.15 0 234.3 0 355 0 C355 117.15 355 234.3 355 355 C237.85 355 120.7 355 0 355 C0 237.85 0 120.7 0 0 Z " fill="#FEFDFD" transform="translate(0,0)"/>
<path d="M0 0 C26.4 0 52.8 0 80 0 C80 28.38 80 56.76 80 86 C74.06 86.495 74.06 86.495 68 87 C69.299375 87.74830078 69.299375 87.74830078 70.625 88.51171875 C75.08983958 91.2925625 79.11865219 93.94077613 81.25390625 98.9296875 C81.9159079 105.65026121 79.79684514 109.87136875 75.78027344 115.00830078 C73.46855621 117.77276763 71.07869467 120.45854103 68.65820312 123.12792969 C66.37294009 125.70793513 64.35131058 128.40797047 62.3125 131.1875 C59.08505531 135.53857358 55.84493056 139.87779354 52.5625 144.1875 C51.92405151 145.03574341 51.92405151 145.03574341 51.27270508 145.90112305 C48.22973068 149.88513466 48.22973068 149.88513466 46 151 C46.02886795 150.44813522 46.0577359 149.89627045 46.08747864 149.3276825 C46.37711122 143.53655582 46.57192034 137.74750736 46.71411133 131.95092773 C46.77913567 129.79415246 46.86759677 127.63794256 46.98071289 125.4831543 C48.14372654 112.57448859 48.14372654 112.57448859 43.25927734 101.20556641 C40.11704335 98.27683199 36.7130351 96.14423713 33 94 C30.99455512 92.67487033 28.9937201 91.34270545 27 90 C27.02220612 91.06107468 27.04441223 92.12214935 27.06729126 93.21537781 C27.27085501 103.26206448 27.42031196 113.30832775 27.51812172 123.35661602 C27.57010109 128.52158376 27.64048724 133.68487435 27.75439453 138.84887695 C27.86382395 143.84167014 27.9230006 148.83286056 27.94877243 153.82676125 C27.9671139 155.72258527 28.00293097 157.61833097 28.05730057 159.51346397 C28.37953388 171.22132026 27.56340257 178.5141204 19.53730774 187.37174988 C18.28134041 188.67273369 18.28134041 188.67273369 17 190 C15.66738873 191.68379283 14.35165628 193.3813464 13.06640625 195.1015625 C11.89875367 196.60961985 10.73079361 198.1174392 9.5625 199.625 C8.96501953 200.39972656 8.36753906 201.17445313 7.75195312 201.97265625 C7.17509766 202.71644531 6.59824219 203.46023438 6.00390625 204.2265625 C5.49674072 204.88221191 4.9895752 205.53786133 4.46704102 206.21337891 C3 208 3 208 0 211 C0 141.37 0 71.74 0 0 Z " fill="#1D1C19" transform="translate(183,123)"/>
<path d="M0 0 C26.4 0 52.8 0 80 0 C80 28.38 80 56.76 80 86 C77.69 84.02 75.38 82.04 73 80 C71.319 78.72618422 69.63324001 77.45860994 67.94140625 76.19921875 C60.22148966 69.94142896 52.97514917 63.96845552 51.83970642 53.61799622 C51.2881361 44.70438732 52.04386496 35.86018473 53 27 C44.42 27 35.84 27 27 27 C25.50841226 35.81113485 25.50841226 35.81113485 28 44 C30.96146591 47.03997116 34.26371568 49.43632524 37.75321579 51.84103775 C55.96229409 64.40415891 76.9424755 79.47491883 81.48529053 102.47808838 C84.23383021 120.23933704 83.85557574 138.34169079 83.25 156.25 C83.22798098 156.9096417 83.20596196 157.5692834 83.1832757 158.24891424 C82.59599455 175.53621742 81.51557603 192.77033534 80 210 C74.49801625 204.53057732 74.49801625 204.53057732 72.23828125 201.6875 C71.76438965 201.09372559 71.29049805 200.49995117 70.80224609 199.88818359 C70.31062988 199.26508301 69.81901367 198.64198242 69.3125 198 C68.52866943 197.01314209 68.52866943 197.01314209 67.72900391 196.00634766 C63.16652876 190.2467943 58.67730621 184.43220999 54.21777344 178.59277344 C52.15155323 175.89028334 50.07524671 173.19556063 48 170.5 C45.54518674 167.30988498 43.09135569 164.11903465 40.640625 160.92578125 C35.84624879 154.68212465 31.02584631 148.45965296 26.1875 142.25 C21.43228172 136.14478331 16.70063637 130.02235365 12 123.875 C11.4846167 123.20114258 10.9692334 122.52728516 10.43823242 121.83300781 C9.47593595 120.57248867 8.51981525 119.30721659 7.57164001 118.03604126 C6.56538283 116.73244685 5.51757846 115.45929584 4.42123413 114.23049927 C-0.19070953 108.83253185 -0.82583802 104.77905519 -0.5859375 97.8125 C-0.57320297 96.39783447 -0.57320297 96.39783447 -0.56021118 94.95458984 C-0.52686129 91.96852041 -0.45161877 88.9852407 -0.375 86 C-0.34487651 83.964883 -0.3175049 81.92972329 -0.29296875 79.89453125 C-0.22713055 74.92862717 -0.12373889 69.96478505 0 65 C5.96490441 70.06116356 11.69286335 75.30610471 17.3125 80.75 C18.21806641 81.59304687 19.12363281 82.43609375 20.05664062 83.3046875 C25.16740348 88.28968214 27.68418898 91.53487559 28.51977539 98.64257812 C29.38988719 102.91395561 32.2156998 105.70609591 35.0625 108.875 C36.23757974 110.24707071 37.41074242 111.62078546 38.58203125 112.99609375 C39.16033691 113.66624512 39.73864258 114.33639648 40.33447266 115.02685547 C42.76487058 117.90613955 45.01851933 120.90290976 47.25 123.9375 C49.47764286 127.0921795 49.47764286 127.0921795 52 130 C53.83805491 122.29104546 54.59764549 114.60560626 52 107 C48.76244988 102.45571891 44.84917568 98.9017964 40.625 95.3125 C40.05258324 94.82210487 39.48016647 94.33170975 38.89040375 93.82645416 C36.48856335 91.77916676 34.07397192 89.74813952 31.64500046 87.73311234 C-1.51567432 60.20863906 -1.51567432 60.20863906 -3.453125 39.390625 C-4.41522595 26.09126717 -1.7715691 13.21863097 0 0 Z " fill="#E21E33" transform="translate(91,123)"/>
<path d="M0 0 C3 1.5625 3 1.5625 5 4 C5.5625 7.5 5.5625 7.5 5 11 C3.1875 13.4375 3.1875 13.4375 1 15 C0.01 15 -0.98 15 -2 15 C-0.2798944 24.23087724 1.66878104 33.11467771 5.4375 41.75 C5.71343994 42.39195313 5.98937988 43.03390625 6.27368164 43.6953125 C8.41190985 48.36725797 11.24521213 53.62260607 16 56 C23.53664649 56.94208081 28.0413377 54.52750323 34 50 C40.04349055 44.7320016 46.77472716 38.50131331 50 31 C49.65883613 27.93530762 48.76509286 26.64763928 47 24 C47.13940451 20.65429178 47.44325491 18.69036391 49.5625 16.0625 C53.19786666 14.47785299 56.23057334 14.9777826 60 16 C62.0625 17.125 62.0625 17.125 63 19 C62.93273404 22.76689361 62.82032733 25.09178045 60.25 27.9375 C57.64304845 29.16856045 55.8478043 29.08015343 53 29 C48.90890052 45.12941424 48.90890052 45.12941424 52.375 60.5625 C53.86881339 62.73333408 54.63255041 63.8162752 57 65 C64.91115017 65.96871227 69.72295424 62.41823377 75.83203125 57.91015625 C78.49255764 55.73336193 80.84723305 53.68175882 83 51 C83.02524328 47.2499712 83.02524328 47.2499712 82 44 C83.5625 41.5 83.5625 41.5 86 40 C89.6985004 40.14794002 91.35805573 40.35805573 94 43 C94.25 45.5 94.25 45.5 94 48 C92 50 92 50 88.8125 50.625 C83.64535856 52.015742 81.10673147 55.87626675 78 60 C77.44570313 60.721875 76.89140625 61.44375 76.3203125 62.1875 C70.4918829 70.13780028 64.13173163 79.6048051 61 89 C18.43 89 -24.14 89 -68 89 C-72.455 80.585 -72.455 80.585 -77 72 C-80.26042381 67.20756982 -83.48954314 62.58643593 -87 58 C-87.5671875 57.21238281 -88.134375 56.42476562 -88.71875 55.61328125 C-91.26277114 52.27763652 -92.56499099 51.0870018 -96.75 50.25 C-97.8225 50.1675 -98.895 50.085 -100 50 C-102 47 -102 47 -101.8125 44.4375 C-101 42 -101 42 -98 40 C-92.55555556 40.44444444 -92.55555556 40.44444444 -90 43 C-90.165 44.155 -90.33 45.31 -90.5 46.5 C-90.58930681 49.76267544 -90.05728599 50.92142291 -88.09765625 53.609375 C-81.87667029 60.08916932 -76.1780527 64.2232921 -67.25 65.5625 C-63.06486633 64.83814994 -61.63315553 63.25272154 -59 60 C-57.40452503 56.80905006 -57.81547715 53.37612737 -57.8125 49.875 C-57.79413086 48.77285156 -57.79413086 48.77285156 -57.77539062 47.6484375 C-57.76160553 42.42847981 -58.65307813 38.03631657 -60 33 C-60 31.68 -60 30.36 -60 29 C-60.9075 29.0825 -61.815 29.165 -62.75 29.25 C-66 29 -66 29 -68.375 27.375 C-70 25 -70 25 -70.5625 22 C-70 19 -70 19 -67.9375 16.5625 C-64.10453656 14.52368966 -62.13392844 14.85168654 -58 16 C-56.0625 17.1875 -56.0625 17.1875 -55 19 C-54.55518878 22.48435452 -54.49466931 24.27310124 -56.5234375 27.19140625 C-57.01070312 27.78824219 -57.49796875 28.38507812 -58 29 C-48.51487668 45.2912007 -48.51487668 45.2912007 -34 56 C-29.54228641 56.66865704 -25.62606415 57.14643372 -21.828125 54.46875 C-21.22484375 53.9840625 -20.6215625 53.499375 -20 53 C-19.34 53 -18.68 53 -18 53 C-17.71898437 52.28714844 -17.43796875 51.57429688 -17.1484375 50.83984375 C-16.40808457 49.00910708 -15.64407753 47.18767355 -14.8515625 45.37890625 C-10.58001604 35.57067377 -7.3482425 25.63763333 -6 15 C-6.78375 14.731875 -7.5675 14.46375 -8.375 14.1875 C-11 13 -11 13 -13 10 C-12.87059529 6.3766682 -12.75012072 3.93014969 -10.4375 1.0625 C-6.93288621 -0.46515217 -3.71600829 -0.64754204 0 0 Z " fill="#E31D32" transform="translate(181,22)"/>
<path d="M0 0 C8.91 0 17.82 0 27 0 C27 10.56 27 21.12 27 32 C18.09 32 9.18 32 0 32 C0 21.44 0 10.88 0 0 Z " fill="#FBFBFB" transform="translate(210,150)"/>
<path d="M0 0 C2.9375 0.75 2.9375 0.75 4.9375 2.75 C4.7725 3.905 4.6075 5.06 4.4375 6.25 C4.34819319 9.51267544 4.88021401 10.67142291 6.83984375 13.359375 C12.46525451 19.21881672 18.15979232 24.23916609 26.5 24.9765625 C28.64706752 24.99669126 30.79465295 24.88605378 32.9375 24.75 C33.4325 25.74 33.4325 25.74 33.9375 26.75 C31.36856162 28.03446919 29.17173663 28.07977144 26.3125 28.3125 C24.80816406 28.43818359 24.80816406 28.43818359 23.2734375 28.56640625 C22.50257812 28.62699219 21.73171875 28.68757813 20.9375 28.75 C21.48473683 32.12462715 21.9924 33.83235 23.9375 36.75 C23.9375 37.74 23.9375 38.73 23.9375 39.75 C24.5975 39.75 25.2575 39.75 25.9375 39.75 C25.9375 41.07 25.9375 42.39 25.9375 43.75 C26.5975 43.75 27.2575 43.75 27.9375 43.75 C28.2675 44.41 28.5975 45.07 28.9375 45.75 C70.1875 45.75 111.4375 45.75 153.9375 45.75 C155.9175 41.79 157.8975 37.83 159.9375 33.75 C160.5975 33.75 161.2575 33.75 161.9375 33.75 C162.2675 31.77 162.5975 29.79 162.9375 27.75 C163.5975 27.75 164.2575 27.75 164.9375 27.75 C164.9375 27.09 164.9375 26.43 164.9375 25.75 C164.009375 25.9975 164.009375 25.9975 163.0625 26.25 C158.68279271 26.95075317 154.36321011 26.82734251 149.9375 26.75 C149.9375 26.09 149.9375 25.43 149.9375 24.75 C151.236875 24.853125 152.53625 24.95625 153.875 25.0625 C162.92237311 25.00595392 169.72013995 18.91680735 176.109375 13.02734375 C178.35143356 10.74068125 178.35143356 10.74068125 177.8125 6.9375 C177.379375 5.3596875 177.379375 5.3596875 176.9375 3.75 C178.5 1.25 178.5 1.25 180.9375 -0.25 C184.6360004 -0.10205998 186.29555573 0.10805573 188.9375 2.75 C189.1875 5.25 189.1875 5.25 188.9375 7.75 C186.9375 9.75 186.9375 9.75 183.75 10.375 C178.58285856 11.765742 176.04423147 15.62626675 172.9375 19.75 C172.10605469 20.8328125 172.10605469 20.8328125 171.2578125 21.9375 C165.4293829 29.88780028 159.06923163 39.3548051 155.9375 48.75 C113.3675 48.75 70.7975 48.75 26.9375 48.75 C22.4825 40.335 22.4825 40.335 17.9375 31.75 C14.67707619 26.95756982 11.44795686 22.33643593 7.9375 17.75 C7.3703125 16.96238281 6.803125 16.17476562 6.21875 15.36328125 C3.67472886 12.02763652 2.37250901 10.8370018 -1.8125 10 C-2.885 9.9175 -3.9575 9.835 -5.0625 9.75 C-7.0625 6.75 -7.0625 6.75 -6.875 4.1875 C-5.59663397 0.35240191 -3.92121596 -0.32009926 0 0 Z " fill="#C52D3F" transform="translate(86.0625,62.25)"/>
<path d="M0 0 C1.57682517 1.34903696 3.15227062 2.69970185 4.72314453 4.05566406 C6.34844994 5.44360447 7.98927829 6.81345132 9.64013672 8.17089844 C29.15521012 24.45959537 29.15521012 24.45959537 30.43359375 34.78125 C30.60422004 40.59616008 30.07588756 46.28651042 29 52 C25.46306124 49.36094621 22.93099843 46.81897086 20.4375 43.1875 C18.03944995 39.75778406 15.60276869 36.48137974 12.88671875 33.296875 C3.30386769 22.00367243 3.30386769 22.00367243 2.6875 14.36328125 C1.15532657 9.09643509 -3.97400952 5.49117256 -8 2 C-5 1 -5 1 -2.8125 1.9375 C-2.214375 2.288125 -1.61625 2.63875 -1 3 C-0.67 2.01 -0.34 1.02 0 0 Z " fill="#FEF6F8" transform="translate(115,202)"/>
<path d="M0 0 C26.4 0 52.8 0 80 0 C80 28.38 80 56.76 80 86 C72.125 79.25 72.125 79.25 70 76 C71.98 75.67 73.96 75.34 76 75 C75.01 76.98 75.01 76.98 74 79 C74.99 78.67 75.98 78.34 77 78 C77.33 52.92 77.66 27.84 78 2 C52.92 2 27.84 2 2 2 C1.98306273 29.80432306 1.98306273 29.80432306 5 58 C5.99 58.33 6.98 58.66 8 59 C7.67 59.99 7.34 60.98 7 62 C3.27715096 59.32190202 0.41482753 56.83029521 -0.6257019 52.23928833 C-0.80860516 48.9024022 -0.78745387 45.62538634 -0.68359375 42.28515625 C-0.67654419 41.21100464 -0.66949463 40.13685303 -0.66223145 39.03015137 C-0.62577027 35.04039756 -0.5280396 31.05139301 -0.4375 27.0625 C-0.293125 18.131875 -0.14875 9.20125 0 0 Z " fill="#C54554" transform="translate(91,123)"/>
<path d="M0 0 C2.0625 1.125 2.0625 1.125 3 3 C2.93273404 6.76689361 2.82032733 9.09178045 0.25 11.9375 C-2.35695155 13.16856045 -4.1521957 13.08015343 -7 13 C-10.79835579 29.60853528 -10.79835579 29.60853528 -8 46 C-8.99 45.67 -9.98 45.34 -11 45 C-12.25433458 41.23699626 -12.10695422 37.72789091 -12.0625 33.8125 C-12.05798828 33.06291016 -12.05347656 32.31332031 -12.04882812 31.54101562 C-12.03706354 29.69397617 -12.01912865 27.84697787 -12 26 C-20.64166739 31.90710467 -20.64166739 31.90710467 -27.68359375 39.5546875 C-30.26706926 42.3911443 -32.42293049 42.96515281 -36.234375 43.1953125 C-37.39453125 43.17210937 -38.5546875 43.14890625 -39.75 43.125 C-40.92046875 43.10695312 -42.0909375 43.08890625 -43.296875 43.0703125 C-44.18890625 43.04710937 -45.0809375 43.02390625 -46 43 C-46.33 41.68 -46.66 40.36 -47 39 C-46.01 39.33 -45.02 39.66 -44 40 C-36.45391589 40.92671208 -31.97184548 38.53752005 -26 34 C-19.95650945 28.7320016 -13.22527284 22.50131331 -10 15 C-10.34116387 11.93530762 -11.23490714 10.64763928 -13 8 C-12.86059549 4.65429178 -12.55674509 2.69036391 -10.4375 0.0625 C-6.80213334 -1.52214701 -3.76942666 -1.0222174 0 0 Z " fill="#C73748" transform="translate(241,38)"/>
<path d="M0 0 C3 1.5625 3 1.5625 5 4 C5.5625 7.5 5.5625 7.5 5 11 C3.1875 13.4375 3.1875 13.4375 1 15 C0.01 15 -0.98 15 -2 15 C0.64711284 28.43740977 0.64711284 28.43740977 5.36328125 41.25 C5.67845703 42.11625 5.67845703 42.11625 6 43 C5.67 43.66 5.34 44.32 5 45 C2.36931161 41.90636923 1.32960264 39.24105702 0.375 35.3125 C-0.24876921 31.86115332 -0.24876921 31.86115332 -2 29 C-2.31923492 26.9427083 -2.51161352 24.88386479 -2.71875 22.8125 C-2.81998043 20.9832467 -2.81998043 20.9832467 -4 20 C-5.65 25.94 -7.3 31.88 -9 38 C-9.66 38 -10.32 38 -11 38 C-10.72285156 36.92621094 -10.44570312 35.85242187 -10.16015625 34.74609375 C-9.79407904 33.30994471 -9.42820442 31.87374401 -9.0625 30.4375 C-8.88009766 29.73302734 -8.69769531 29.02855469 -8.50976562 28.30273438 C-7.3884486 23.87862902 -6.56543671 19.52944562 -6 15 C-6.78375 14.731875 -7.5675 14.46375 -8.375 14.1875 C-11 13 -11 13 -13 10 C-12.87059529 6.3766682 -12.75012072 3.93014969 -10.4375 1.0625 C-6.93288621 -0.46515217 -3.71600829 -0.64754204 0 0 Z " fill="#DF1F33" transform="translate(181,22)"/>
<path d="M0 0 C1.9375 1.1875 1.9375 1.1875 3 3 C3.44481122 6.48435452 3.50533069 8.27310124 1.4765625 11.19140625 C0.98929688 11.78824219 0.50203125 12.38507812 0 13 C4.67438749 20.25904881 9.7725296 27.13458887 15 34 C13.515 34.495 13.515 34.495 12 35 C12 34.34 12 33.68 12 33 C10.35 33 8.7 33 7 33 C6.896875 31.9275 6.79375 30.855 6.6875 29.75 C6.01397764 26.07624166 5.34125011 24.74842404 3 22 C3 21.34 3 20.68 3 20 C2.34 20 1.68 20 1 20 C1.33 20.99 1.66 21.98 2 23 C2.08021999 24.40824893 2.10765977 25.81997231 2.09765625 27.23046875 C2.09443359 28.03291016 2.09121094 28.83535156 2.08789062 29.66210938 C2.07951172 30.49548828 2.07113281 31.32886719 2.0625 32.1875 C2.05798828 33.03248047 2.05347656 33.87746094 2.04882812 34.74804688 C2.03705403 36.83206155 2.0191189 38.91603977 2 41 C1.67 41 1.34 41 1 41 C0.95101562 39.9378125 0.90203125 38.875625 0.8515625 37.78125 C0.48400685 30.59990876 0.00170247 23.93923522 -2 17 C-2 15.68 -2 14.36 -2 13 C-2.9075 13.0825 -3.815 13.165 -4.75 13.25 C-8 13 -8 13 -10.375 11.375 C-12 9 -12 9 -12.5625 6 C-12 3 -12 3 -9.9375 0.5625 C-6.10453656 -1.47631034 -4.13392844 -1.14831346 0 0 Z " fill="#BD3C4B" transform="translate(123,38)"/>
<path d="M0 0 C2.9375 0.75 2.9375 0.75 4.9375 2.75 C4.7725 3.905 4.6075 5.06 4.4375 6.25 C4.34819319 9.51267544 4.88021401 10.67142291 6.83984375 13.359375 C12.46525451 19.21881672 18.15979232 24.23916609 26.5 24.9765625 C28.64706752 24.99669126 30.79465295 24.88605378 32.9375 24.75 C33.4325 25.74 33.4325 25.74 33.9375 26.75 C27.53120576 26.95852314 22.00777358 26.9083195 15.9375 24.75 C16.453125 25.348125 16.96875 25.94625 17.5 26.5625 C17.974375 27.284375 18.44875 28.00625 18.9375 28.75 C18.6075 29.74 18.2775 30.73 17.9375 31.75 C17.28523438 30.82058594 16.63296875 29.89117187 15.9609375 28.93359375 C13.7212568 25.75581341 11.45652986 22.59711825 9.17236328 19.45117188 C8.17024892 18.07063948 7.17575634 16.68457679 6.18359375 15.296875 C3.6395357 11.99722478 2.3433345 10.8311669 -1.8125 10 C-2.885 9.9175 -3.9575 9.835 -5.0625 9.75 C-7.0625 6.75 -7.0625 6.75 -6.875 4.1875 C-5.59663397 0.35240191 -3.92121596 -0.32009926 0 0 Z " fill="#AE4652" transform="translate(86.0625,62.25)"/>
<path d="M0 0 C1.60157103 1.31684729 3.18874245 2.65298155 4.72612 4.04423523 C7.00590362 6.08548705 7.00590362 6.08548705 9.77742004 7.85188293 C14.07101994 11.16772813 17.30694207 14.12590331 18.614254 19.54729843 C19.57922871 27.33758948 19.26032547 35.18213086 19.07421875 43.01171875 C19.05368009 45.55187093 19.03803255 48.09206695 19.02705383 50.63227844 C18.98949132 56.61138094 18.90301123 62.58779576 18.79220945 68.56582528 C18.66871839 75.37820725 18.60864466 82.1907037 18.55355966 89.00392854 C18.43896651 103.00385648 18.2458284 117.00180473 18 131 C16.68 129.68 15.36 128.36 14 127 C15.485 126.505 15.485 126.505 17 126 C16.67 90.36 16.34 54.72 16 18 C15.34 17.67 14.68 17.34 14 17 C14 16.34 14 15.68 14 15 C13.01 14.67 12.02 14.34 11 14 C9.31267723 12.01739574 7.64633943 10.0167658 6 8 C5.01 7.34 4.02 6.68 3 6 C3 5.34 3 4.68 3 4 C2.01 4 1.02 4 0 4 C0 2.68 0 1.36 0 0 Z " fill="#B33343" transform="translate(153,202)"/>
<path d="M0 0 C3.09468195 0.09582804 4.33539717 0.45202977 7.1875 1.9375 C9.1875 4.375 9.1875 4.375 9.75 7.875 C9.1875 11.375 9.1875 11.375 7.375 13.8125 C5.1875 15.375 5.1875 15.375 2.1875 15.375 C4.83461284 28.81240977 4.83461284 28.81240977 9.55078125 41.625 C9.86595703 42.49125 9.86595703 42.49125 10.1875 43.375 C9.8575 44.035 9.5275 44.695 9.1875 45.375 C6.55681161 42.28136923 5.51710264 39.61605702 4.5625 35.6875 C3.93873079 32.23615332 3.93873079 32.23615332 2.1875 29.375 C1.86826508 27.3177083 1.67588648 25.25886479 1.46875 23.1875 C1.36751957 21.3582467 1.36751957 21.3582467 0.1875 20.375 C-1.4625 26.315 -3.1125 32.255 -4.8125 38.375 C-5.4725 38.375 -6.1325 38.375 -6.8125 38.375 C-6.53535156 37.30121094 -6.25820312 36.22742187 -5.97265625 35.12109375 C-5.60657904 33.68494471 -5.24070442 32.24874401 -4.875 30.8125 C-4.69259766 30.10802734 -4.51019531 29.40355469 -4.32226562 28.67773438 C-3.2009486 24.25362902 -2.37793671 19.90444562 -1.8125 15.375 C-0.1625 15.045 1.4875 14.715 3.1875 14.375 C3.1875 13.385 3.1875 12.395 3.1875 11.375 C4.5075 11.375 5.8275 11.375 7.1875 11.375 C6.8575 8.735 6.5275 6.095 6.1875 3.375 C2.2275 3.045 -1.7325 2.715 -5.8125 2.375 C-3.8125 0.375 -3.8125 0.375 0 0 Z " fill="#C33F4F" transform="translate(176.8125,21.625)"/>
<path d="M0 0 C0.66 0.33 1.32 0.66 2 1 C2 36.64 2 72.28 2 109 C-3 108 -3 108 -5.3125 105.5625 C-7 103 -7 103 -7 101 C-6.01 101 -5.02 101 -4 101 C-4 101.66 -4 102.32 -4 103 C-3.01 103.33 -2.02 103.66 -1 104 C-0.67 104.99 -0.34 105.98 0 107 C0 71.69 0 36.38 0 0 Z " fill="#CE2737" transform="translate(168,219)"/>
<path d="M0 0 C2.875 -0.125 2.875 -0.125 6 0 C6.66 0.66 7.32 1.32 8 2 C7.9765625 4.1640625 7.9765625 4.1640625 7.625 6.625 C7.45871094 7.85089844 7.45871094 7.85089844 7.2890625 9.1015625 C7.14597656 10.04128906 7.14597656 10.04128906 7 11 C5.5199159 10.88637738 4.04089926 10.75877092 2.5625 10.625 C1.73878906 10.55539063 0.91507812 10.48578125 0.06640625 10.4140625 C-0.61550781 10.27742188 -1.29742187 10.14078125 -2 10 C-3.35439668 7.29120665 -3.06501451 4.99066732 -3 2 C-2.01 2 -1.02 2 0 2 C0 1.34 0 0.68 0 0 Z " fill="#D72234" transform="translate(116,39)"/>
<path d="M0 0 C0.33 0 0.66 0 1 0 C1 26.07 1 52.14 1 79 C-6 76 -6 76 -8 73 C-5.03 72.505 -5.03 72.505 -2 72 C-2.66 73.32 -3.32 74.64 -4 76 C-2.515 75.505 -2.515 75.505 -1 75 C-0.67 50.25 -0.34 25.5 0 0 Z " fill="#CC2939" transform="translate(169,126)"/>
<path d="M0 0 C0.66 0 1.32 0 2 0 C3.35452384 1.75238728 4.49941712 3.59782517 5.68359375 5.46875 C6.11800781 5.9740625 6.55242187 6.479375 7 7 C7.99 7 8.98 7 10 7 C10.4125 8.11375 10.825 9.2275 11.25 10.375 C12.35546516 12.99320695 12.74880787 13.83493089 15.1875 15.4375 C15.785625 15.623125 16.38375 15.80875 17 16 C17 17.32 17 18.64 17 20 C17.66 20 18.32 20 19 20 C19 20.99 19 21.98 19 23 C19.66 23 20.32 23 21 23 C21.33 24.32 21.66 25.64 22 27 C22.66 27 23.32 27 24 27 C24.66 29.31 25.32 31.62 26 34 C22.25027831 30.39165023 18.9883243 26.61742936 15.8125 22.5 C15.34416748 21.89704102 14.87583496 21.29408203 14.39331055 20.67285156 C13.41832684 19.41647477 12.44478715 18.1589761 11.47265625 16.90039062 C10.01157009 15.01493064 8.53855337 13.13938176 7.0625 11.265625 C6.14557397 10.09395293 5.22889717 8.92208575 4.3125 7.75 C3.87848877 7.20150391 3.44447754 6.65300781 2.99731445 6.08789062 C0 2.22764806 0 2.22764806 0 0 Z " fill="#C63443" transform="translate(100,241)"/>
<path d="M0 0 C0.33 0 0.66 0 1 0 C1 28.05 1 56.1 1 85 C-0.98 83.35 -2.96 81.7 -5 80 C-4.01 79.505 -4.01 79.505 -3 79 C-2.34 79.33 -1.68 79.66 -1 80 C-0.67 53.6 -0.34 27.2 0 0 Z " fill="#B13343" transform="translate(170,124)"/>
<path d="M0 0 C2.33761584 3.50642376 2.2864076 5.08718383 2.37890625 9.2421875 C2.41306641 10.47324219 2.44722656 11.70429688 2.48242188 12.97265625 C2.50884766 14.26042969 2.53527344 15.54820312 2.5625 16.875 C2.62259073 19.41415305 2.68625364 21.95322468 2.75390625 24.4921875 C2.77783447 25.61995605 2.8017627 26.74772461 2.82641602 27.90966797 C2.98546275 30.74119199 3.19162772 33.28078963 4 36 C4.825 36.33 5.65 36.66 6.5 37 C7.325 37.33 8.15 37.66 9 38 C9.8125 40.625 9.8125 40.625 10 43 C8.8944811 42.06409496 7.79064547 41.12620142 6.6875 40.1875 C6.07261719 39.66542969 5.45773438 39.14335937 4.82421875 38.60546875 C4.22222656 38.07566406 3.62023437 37.54585937 3 37 C2.47341797 36.63132813 1.94683594 36.26265625 1.40429688 35.8828125 C-0.79215473 32.93791772 -0.36793116 29.79510462 -0.29296875 26.26953125 C-0.28872391 25.51911057 -0.28447906 24.76868988 -0.28010559 23.99552917 C-0.2633245 21.60081974 -0.2256749 19.20695466 -0.1875 16.8125 C-0.17245235 15.1881632 -0.15876409 13.5638132 -0.14648438 11.93945312 C-0.11342305 7.95931052 -0.06164594 3.97979837 0 0 Z " fill="#D0273A" transform="translate(145,150)"/>
<path d="M0 0 C1.14926266 0.95421808 2.29430541 1.91352045 3.4375 2.875 C4.39462891 3.67550781 4.39462891 3.67550781 5.37109375 4.4921875 C7 6 7 6 8 8 C6.68 8 5.36 8 4 8 C4.33 12.62 4.66 17.24 5 22 C4.34 21.34 3.68 20.68 3 20 C3 18.845 3 17.69 3 16.5 C2.43741436 9.9883705 -3.40228661 6.07202202 -8 2 C-5 1 -5 1 -2.8125 1.9375 C-2.214375 2.288125 -1.61625 2.63875 -1 3 C-0.67 2.01 -0.34 1.02 0 0 Z " fill="#FDE4EB" transform="translate(115,202)"/>
<path d="M0 0 C0.33 0 0.66 0 1 0 C0.79375 0.94875 0.5875 1.8975 0.375 2.875 C-0.45082885 9.65187859 0.17288339 14.59664177 4.40283203 20.16064453 C11.01300047 27.66275267 18.51717874 34.38581744 26 41 C24.515 41.495 24.515 41.495 23 42 C21.33333333 40.33333333 19.66666667 38.66666667 18 37 C17.505 36.525625 17.01 36.05125 16.5 35.5625 C15.05929044 34.06176088 13.79696063 32.50006079 12.5 30.875 C10.25656749 27.80308932 10.25656749 27.80308932 7 27 C6.67 26.01 6.34 25.02 6 24 C5.01 23.67 4.02 23.34 3 23 C-0.7471278 18.57157624 -0.35651132 14.17820122 -0.1875 8.6875 C-0.17396484 7.85154297 -0.16042969 7.01558594 -0.14648438 6.15429688 C-0.11131217 4.10258502 -0.05751048 2.05120725 0 0 Z " fill="#C94050" transform="translate(117,150)"/>
<path d="M0 0 C3 0.1875 3 0.1875 5 1.1875 C5.125 4.0625 5.125 4.0625 5 7.1875 C4.34 7.8475 3.68 8.5075 3 9.1875 C-3.57692308 8.61057692 -3.57692308 8.61057692 -5 7.1875 C-5.1875 4.75 -5.1875 4.75 -5 2.1875 C-3 0.1875 -3 0.1875 0 0 Z " fill="#E11E32" transform="translate(236,39.8125)"/>
<path d="M0 0 C2.8125 0.1875 2.8125 0.1875 6 1 C8.89716353 4.73117633 9.36178725 7.51906244 9.29296875 12.17578125 C9.28330078 13.33271484 9.27363281 14.48964844 9.26367188 15.68164062 C9.23853516 16.87982422 9.21339844 18.07800781 9.1875 19.3125 C9.17396484 20.53001953 9.16042969 21.74753906 9.14648438 23.00195312 C9.11119261 26.00175345 9.06188481 29.00064975 9 32 C8.01 31.67 7.02 31.34 6 31 C6.0314209 30.30962646 6.0628418 29.61925293 6.09521484 28.90795898 C6.22065894 25.75147853 6.29819804 22.59552328 6.375 19.4375 C6.42527344 18.35146484 6.47554687 17.26542969 6.52734375 16.14648438 C6.62714215 10.67420539 6.64046945 6.99721436 2.9765625 2.72265625 C2.01188146 1.78591866 1.0286039 0.86606052 0 0 Z " fill="#D64654" transform="translate(137,223)"/>
<path d="M0 0 C0.99 0.99 1.98 1.98 3 3 C2.34 3 1.68 3 1 3 C0.96975347 8.39039108 0.98566288 13.77803758 1.04272461 19.16821289 C1.05579281 20.99824447 1.05666453 22.82840828 1.04467773 24.65844727 C0.6652511 38.35447018 0.6652511 38.35447018 7.50170898 49.73657227 C7.99614502 50.15350342 8.49058105 50.57043457 9 51 C8.67 51.66 8.34 52.32 8 53 C3.85661815 49.62853906 0.57015967 46.01887732 -0.43603516 40.69128418 C-1.01640028 34.09389824 -0.72812 27.48402376 -0.5 20.875 C-0.45981759 18.84902877 -0.42332522 16.82298081 -0.390625 14.796875 C-0.30301391 9.86267019 -0.16527506 4.93218928 0 0 Z " fill="#A43944" transform="translate(91,188)"/>
<path d="M0 0 C0.99 0 1.98 0 3 0 C3.103125 0.639375 3.20625 1.27875 3.3125 1.9375 C3.539375 2.618125 3.76625 3.29875 4 4 C4.99 4.33 5.98 4.66 7 5 C8.71875 7.1796875 8.71875 7.1796875 10.5 9.875 C12.49826542 12.88116245 14.41692055 15.48867275 17 18 C17.66 18.99 18.32 19.98 19 21 C18.67 21.99 18.34 22.98 18 24 C0 2.8647541 0 2.8647541 0 0 Z " fill="#C63446" transform="translate(135,287)"/>
<path d="M0 0 C2.31 0 4.62 0 7 0 C7 0.33 7 0.66 7 1 C5.35 1 3.7 1 2 1 C1.01 6.61 0.02 12.22 -1 18 C-1.33 18 -1.66 18 -2 18 C-2 15.36 -2 12.72 -2 10 C-2.66 10 -3.32 10 -4 10 C-4.268125 10.598125 -4.53625 11.19625 -4.8125 11.8125 C-5.98493467 13.97224808 -7.19369282 15.35790256 -9 17 C-9.66 16.67 -10.32 16.34 -11 16 C-10.54109375 15.5153125 -10.0821875 15.030625 -9.609375 14.53125 C-5.40998532 9.94368144 -2.53511826 5.67866491 0 0 Z " fill="#B94654" transform="translate(232,50)"/>
<path d="M0 0 C2.5625 0.1875 2.5625 0.1875 4.5625 2.1875 C4.6875 5.8125 4.6875 5.8125 4.5625 9.1875 C2.2525 8.8575 -0.0575 8.5275 -2.4375 8.1875 C-2.81813221 5.8614143 -3.15019945 3.52694736 -3.4375 1.1875 C-2.4375 0.1875 -2.4375 0.1875 0 0 Z " fill="#E01D36" transform="translate(84.4375,63.8125)"/>
<path d="M0 0 C0.53367188 0.3609375 1.06734375 0.721875 1.6171875 1.09375 C7.40974772 4.70157297 12.17880457 6.11919441 19 5 C21.22794828 4.04608756 21.22794828 4.04608756 23 3 C23 3.99 23 4.98 23 6 C19.57670149 8.28219901 18.15862332 8.29741163 14.125 8.3125 C13.09632813 8.32925781 12.06765625 8.34601563 11.0078125 8.36328125 C7.61779998 7.95383818 5.81505332 6.870308 3 5 C0.30745009 4.29329272 0.30745009 4.29329272 -2 4 C-1.34 3.67 -0.68 3.34 0 3 C0 2.01 0 1.02 0 0 Z " fill="#C73845" transform="translate(138,73)"/>
<path d="M0 0 C4.29425875 1.07356469 4.74740471 1.5084773 7 5 C4.525 4.01 4.525 4.01 2 3 C1.67 14.88 1.34 26.76 1 39 C0.67 39 0.34 39 0 39 C0 26.13 0 13.26 0 0 Z " fill="#C82A3B" transform="translate(92,191)"/>
<path d="M0 0 C3.09468195 0.09582804 4.33539717 0.45202977 7.1875 1.9375 C9.1875 4.375 9.1875 4.375 9.6875 7.9375 C9.1875 11.375 9.1875 11.375 7.875 13.3125 C6.1875 14.375 6.1875 14.375 3.1875 14.375 C3.1875 13.385 3.1875 12.395 3.1875 11.375 C4.5075 11.375 5.8275 11.375 7.1875 11.375 C6.8575 8.735 6.5275 6.095 6.1875 3.375 C2.2275 3.045 -1.7325 2.715 -5.8125 2.375 C-3.8125 0.375 -3.8125 0.375 0 0 Z " fill="#BD3648" transform="translate(176.8125,21.625)"/>
<path d="M0 0 C1.32 0 2.64 0 4 0 C3.67 0.66 3.34 1.32 3 2 C2.84266751 4.98763355 2.74138585 7.95541151 2.68359375 10.9453125 C2.66281265 11.8303244 2.64203156 12.7153363 2.62062073 13.62716675 C2.55513402 16.45969741 2.49624438 19.29232225 2.4375 22.125 C2.39431394 24.04297857 2.35069963 25.96094754 2.30664062 27.87890625 C2.19945353 32.58584051 2.0981836 37.29286967 2 42 C1.67 42 1.34 42 1 42 C0.97494385 40.86457764 0.9498877 39.72915527 0.92407227 38.55932617 C0.82994424 34.34924919 0.72973663 30.13933512 0.62768555 25.92944336 C0.58435713 24.10689096 0.54268053 22.28429852 0.50268555 20.46166992 C0.44493238 17.84281339 0.38125244 15.22415805 0.31640625 12.60546875 C0.29969376 11.78974899 0.28298126 10.97402924 0.26576233 10.1335907 C0.17986755 6.85820456 0.04247866 4.12743599 -1 1 C-0.67 0.67 -0.34 0.34 0 0 Z " fill="#FDD7DD" transform="translate(89,187)"/>
<path d="M0 0 C3 0.125 3 0.125 4 1.125 C4.125 3.625 4.125 3.625 4 6.125 C3.67 6.455 3.34 6.785 3 7.125 C0.66055264 6.83769945 -1.6739143 6.50563221 -4 6.125 C-4.042721 4.45888095 -4.04063832 2.79117115 -4 1.125 C-3 0.125 -3 0.125 0 0 Z " fill="#D92135" transform="translate(269,63.875)"/>
<path d="M0 0 C0 2.64 0 5.28 0 8 C-0.66 8 -1.32 8 -2 8 C-2 7.34 -2 6.68 -2 6 C-3.98 6.33 -5.96 6.66 -8 7 C-8 5.02 -8 3.04 -8 1 C-5.07175348 0.02391783 -3.04386724 -0.08226668 0 0 Z " fill="#E31D33" transform="translate(121,40)"/>
<path d="M0 0 C0.66 0 1.32 0 2 0 C2.04898438 1.22976562 2.09796875 2.45953125 2.1484375 3.7265625 C2.22351029 5.35939566 2.29905615 6.99220712 2.375 8.625 C2.4059375 9.43324219 2.436875 10.24148437 2.46875 11.07421875 C2.6952946 15.71838314 3.2592668 19.62693856 5 24 C4.01 23.67 3.02 23.34 2 23 C0.74566542 19.23699626 0.89304578 15.72789091 0.9375 11.8125 C0.94201172 11.06291016 0.94652344 10.31332031 0.95117188 9.54101562 C0.96293646 7.69397617 0.98087135 5.84697787 1 4 C-1.31 5.65 -3.62 7.3 -6 9 C-6.33 8.34 -6.66 7.68 -7 7 C-5.47005208 5.76302083 -3.94010417 4.52604167 -2.41015625 3.2890625 C-0.86733563 2.0333609 -0.86733563 2.0333609 0 0 Z " fill="#D32535" transform="translate(228,60)"/>
<path d="M0 0 C2.97 0.495 2.97 0.495 6 1 C6 1.99 6 2.98 6 4 C6.99 4 7.98 4 9 4 C9.33 5.32 9.66 6.64 10 8 C10.66 8 11.32 8 12 8 C12 8.66 12 9.32 12 10 C12.66 10 13.32 10 14 10 C13.67 11.32 13.34 12.64 13 14 C10.83031809 11.85714108 8.66416525 9.71091768 6.5 7.5625 C5.87996094 6.95083984 5.25992188 6.33917969 4.62109375 5.70898438 C4.03457031 5.12568359 3.44804688 4.54238281 2.84375 3.94140625 C2.02680664 3.13231812 2.02680664 3.13231812 1.19335938 2.30688477 C0 1 0 1 0 0 Z " fill="#CC3F4E" transform="translate(121,207)"/>
<path d="M0 0 C3.44332148 2.26485851 6.49985633 4.29839389 7.69921875 8.37890625 C7.94234237 10.09122853 8.17665608 11.80482377 8.40234375 13.51953125 C9.38657331 17.60440556 12.01642198 20.16653912 15 23 C14.67 23.66 14.34 24.32 14 25 C9.14635694 21.30701071 6.75770888 18.98154573 5.5859375 12.82421875 C4.64438028 7.9488674 3.96422038 5.30351698 0 2 C0 1.34 0 0.68 0 0 Z " fill="#BF3646" transform="translate(111,208)"/>
<path d="M0 0 C3.46941546 0.45822468 6.67395049 0.89131683 10 2 C11.56118428 2.06740865 13.1250252 2.08514456 14.6875 2.0625 C15.49574219 2.05347656 16.30398437 2.04445313 17.13671875 2.03515625 C17.75160156 2.02355469 18.36648437 2.01195313 19 2 C19.33 2.66 19.66 3.32 20 4 C13.59370576 4.20852314 8.07027358 4.1583195 2 2 C2.7734375 2.8971875 2.7734375 2.8971875 3.5625 3.8125 C4.036875 4.534375 4.51125 5.25625 5 6 C4.67 6.99 4.34 7.98 4 9 C0 3.375 0 3.375 0 0 Z " fill="#BE3A47" transform="translate(100,85)"/>
<path d="M0 0 C0.33 0 0.66 0 1 0 C2.47005445 7.2277677 2.47005445 7.2277677 0.25 10.875 C-2 13 -2 13 -5 15 C-5.99 14.67 -6.98 14.34 -8 14 C-7.34 14 -6.68 14 -6 14 C-5.62875 13.0409375 -5.62875 13.0409375 -5.25 12.0625 C-3.59188428 8.00011649 -1.7964416 4.00275094 0 0 Z " fill="#CB3949" transform="translate(169,61)"/>
<path d="M0 0 C2.9375 0.75 2.9375 0.75 4.9375 2.75 C5.0625 5.375 5.0625 5.375 4.9375 7.75 C3.9475 8.245 3.9475 8.245 2.9375 8.75 C2.2775 6.77 1.6175 4.79 0.9375 2.75 C-0.7125 2.75 -2.3625 2.75 -4.0625 2.75 C-4.0625 5.06 -4.0625 7.37 -4.0625 9.75 C-5.625 8.5625 -5.625 8.5625 -7.0625 6.75 C-6.9375 4.1875 -6.9375 4.1875 -6.0625 1.75 C-3.0625 -0.25 -3.0625 -0.25 0 0 Z " fill="#BE4252" transform="translate(86.0625,62.25)"/>
<path d="M0 0 C0.66 0.33 1.32 0.66 2 1 C2 8.92 2 16.84 2 25 C0.35 23.68 -1.3 22.36 -3 21 C-3 20.34 -3 19.68 -3 19 C-1.68 19.33 -0.36 19.66 1 20 C1 14.06 1 8.12 1 2 C0.34 1.67 -0.32 1.34 -1 1 C-0.67 0.67 -0.34 0.34 0 0 Z " fill="#FFE7ED" transform="translate(142,229)"/>
<path d="M0 0 C5.29012124 4.40843437 10.18808428 9.07559794 15 14 C14.67 14.99 14.34 15.98 14 17 C14 16.34 14 15.68 14 15 C13.01 14.67 12.02 14.34 11 14 C9.31267723 12.01739574 7.64633943 10.0167658 6 8 C5.01 7.34 4.02 6.68 3 6 C3 5.34 3 4.68 3 4 C2.01 4 1.02 4 0 4 C0 2.68 0 1.36 0 0 Z " fill="#C22E3F" transform="translate(153,202)"/>
<path d="M0 0 C5.66129431 4.69766975 10.85228904 9.74723372 16 15 C15.01 15.33 14.02 15.66 13 16 C11.33333333 14.33333333 9.66666667 12.66666667 8 11 C7.505 10.525625 7.01 10.05125 6.5 9.5625 C0 2.79166667 0 2.79166667 0 0 Z " fill="#BD313F" transform="translate(127,176)"/>
<path d="M0 0 C0.66 0 1.32 0 2 0 C2.66 1.32 3.32 2.64 4 4 C3.34 4 2.68 4 2 4 C2.02320312 5.25296875 2.04640625 6.5059375 2.0703125 7.796875 C2.08907427 9.4479107 2.10727403 11.09895285 2.125 12.75 C2.15013672 13.9875 2.15013672 13.9875 2.17578125 15.25 C2.18222656 16.04921875 2.18867187 16.8484375 2.1953125 17.671875 C2.20578613 18.4050293 2.21625977 19.13818359 2.22705078 19.89355469 C1.96777544 22.29896076 1.19225925 23.91251494 0 26 C-0.66 26 -1.32 26 -2 26 C-1.67402832 25.27981689 -1.34805664 24.55963379 -1.01220703 23.81762695 C0.0192973 20.94628314 0.2324755 18.94675317 0.1953125 15.91796875 C0.18886719 14.98662109 0.18242188 14.05527344 0.17578125 13.09570312 C0.15064453 11.65614258 0.15064453 11.65614258 0.125 10.1875 C0.11597656 9.20845703 0.10695313 8.22941406 0.09765625 7.22070312 C0.07417182 4.81354939 0.0413284 2.40690257 0 0 Z " fill="#CE2A3B" transform="translate(124,58)"/>
<path d="M0 0 C0.66 0.33 1.32 0.66 2 1 C0.54312342 3.60499124 -0.91543651 6.20901482 -2.375 8.8125 C-2.7875 9.55048828 -3.2 10.28847656 -3.625 11.04882812 C-4.02460938 11.76103516 -4.42421875 12.47324219 -4.8359375 13.20703125 C-5.20251465 13.8616333 -5.5690918 14.51623535 -5.94677734 15.19067383 C-6.90206799 16.83176306 -7.9466896 18.4200344 -9 20 C-8.43174347 14.45949887 -6.37113483 9.96284034 -4 5 C-3.34 5 -2.68 5 -2 5 C-1.34 3.35 -0.68 1.7 0 0 Z " fill="#C13C4D" transform="translate(250,91)"/>
<path d="M0 0 C5.28 0.66 10.56 1.32 16 2 C16 2.33 16 2.66 16 3 C10.555 3.495 10.555 3.495 5 4 C5 5.32 5 6.64 5 8 C4.34 8 3.68 8 3 8 C1.92474806 5.34771188 0.90543849 2.71631546 0 0 Z " fill="#D52439" transform="translate(102,87)"/>
<path d="M0 0 C2.375 0.75 2.375 0.75 5 2 C5.33 2.680625 5.66 3.36125 6 4.0625 C6.33 4.701875 6.66 5.34125 7 6 C9.55519921 6.81171228 9.55519921 6.81171228 12 7 C12 8.65 12 10.3 12 12 C7.47384007 8.32167983 3.60575001 4.58913637 0 0 Z " fill="#C6404E" transform="translate(99,185)"/>
<path d="M0 0 C0.33 0.66 0.66 1.32 1 2 C0.109375 3.734375 0.109375 3.734375 -1.25 5.75 C-2.93364284 8.30336994 -4.30925058 10.65418391 -5.625 13.4375 C-7 16 -7 16 -10 17 C-8.57394582 13.07297642 -6.70550338 9.75380481 -4.4375 6.25 C-3.81746094 5.28578125 -3.19742188 4.3215625 -2.55859375 3.328125 C-1 1 -1 1 0 0 Z " fill="#FED8E1" transform="translate(256,85)"/>
<path d="M0 0 C1.65 0 3.3 0 5 0 C5.33 1.65 5.66 3.3 6 5 C6.99 5 7.98 5 9 5 C9.33 6.65 9.66 8.3 10 10 C2.51708428 3.84965831 2.51708428 3.84965831 0 0 Z " fill="#CC404F" transform="translate(111,197)"/>
<path d="M0 0 C0.85271484 0.30744141 0.85271484 0.30744141 1.72265625 0.62109375 C6.49634182 2.28670357 10.9575995 3.39491194 16 4 C16.99 4.33 17.98 4.66 19 5 C15.9785026 6.5107487 13.2649627 6.55699908 10 6 C6.53630616 4.55805467 3.26700737 2.84056753 0 1 C0 0.67 0 0.34 0 0 Z " fill="#FCD2D9" transform="translate(100,82)"/>
<path d="M0 0 C4.03384128 2.07143201 5.92856799 3.96615872 8 8 C7.01 8 6.02 8 5 8 C5 7.34 5 6.68 5 6 C3.35 6 1.7 6 0 6 C0 4.02 0 2.04 0 0 Z " fill="#CC2D3F" transform="translate(130,65)"/>
<path d="M0 0 C2.0625 0.4375 2.0625 0.4375 4 1 C3.01 1.66 2.02 2.32 1 3 C1 3.66 1 4.32 1 5 C3.97 5.495 3.97 5.495 7 6 C6.67 6.99 6.34 7.98 6 9 C3.03 8.505 3.03 8.505 0 8 C-0.38063221 5.6739143 -0.71269945 3.33944736 -1 1 C-0.67 0.67 -0.34 0.34 0 0 Z " fill="#CC273A" transform="translate(82,64)"/>
<path d="M0 0 C1.4783226 2.95664519 1.06032783 5.74229737 1 9 C2.32 9.33 3.64 9.66 5 10 C5 10.99 5 11.98 5 13 C1.34683329 11.75023244 0.21934164 11.32901247 -2 8 C-1.43396226 1.43396226 -1.43396226 1.43396226 0 0 Z " fill="#C54B59" transform="translate(170,24)"/>
<path d="M0 0 C1.953125 0.8359375 1.953125 0.8359375 4 2 C4.75 4.625 4.75 4.625 5 7 C5.66 7 6.32 7 7 7 C7.33 9.31 7.66 11.62 8 14 C5.66635648 11.07096942 3.95039164 8.11431797 2.3125 4.75 C1.65701172 3.41195312 1.65701172 3.41195312 0.98828125 2.046875 C0.66214844 1.37140625 0.33601563 0.6959375 0 0 Z " fill="#C03A48" transform="translate(105,95)"/>
<path d="M0 0 C1.82421875 0.22265625 1.82421875 0.22265625 4 1 C5.51953125 2.99609375 5.51953125 2.99609375 6.8125 5.4375 C7.25207031 6.24058594 7.69164062 7.04367187 8.14453125 7.87109375 C8.42683594 8.57363281 8.70914063 9.27617187 9 10 C8.67 10.66 8.34 11.32 8 12 C6.66382103 10.18959679 5.33112616 8.3766216 4 6.5625 C3.2575 5.55316406 2.515 4.54382813 1.75 3.50390625 C0 1 0 1 0 0 Z " fill="#C63749" transform="translate(126,275)"/>
<path d="M0 0 C0.7425 0.0825 1.485 0.165 2.25 0.25 C1.5075 0.8275 0.765 1.405 0 2 C-2.74198619 4.15659314 -2.74198619 4.15659314 -4.9375 6.5 C-6.75 8.25 -6.75 8.25 -8.75 8.25 C-6.92599593 3.9939905 -4.88604345 0.44418577 0 0 Z " fill="#F6D0D6" transform="translate(269.75,71.75)"/>
<path d="M0 0 C4.55015893 1.51671964 6.50057264 5.16891053 9 9 C8.67 9.66 8.34 10.32 8 11 C6.66375099 9.35653302 5.33107149 7.71016314 4 6.0625 C3.2575 5.14597656 2.515 4.22945312 1.75 3.28515625 C0 1 0 1 0 0 Z " fill="#C13A49" transform="translate(91,230)"/>
<path d="M0 0 C0.66 0.33 1.32 0.66 2 1 C0.8758824 2.29243468 -0.24932592 3.58392075 -1.375 4.875 C-2.00148438 5.59429687 -2.62796875 6.31359375 -3.2734375 7.0546875 C-4.47426834 8.4076598 -5.7208345 9.7208345 -7 11 C-7 10.34 -7 9.68 -7 9 C-7.66 8.67 -8.32 8.34 -9 8 C-8.43410156 7.50628906 -7.86820312 7.01257813 -7.28515625 6.50390625 C-6.55167969 5.86324219 -5.81820313 5.22257812 -5.0625 4.5625 C-4.33160156 3.92441406 -3.60070312 3.28632812 -2.84765625 2.62890625 C-1.87860647 1.77458541 -0.91348825 0.91348825 0 0 Z " fill="#A75563" transform="translate(264,73)"/>
<path d="M0 0 C0.99 0 1.98 0 3 0 C3 0.66 3 1.32 3 2 C3.99 2.33 4.98 2.66 6 3 C6 4.65 6 6.3 6 8 C1.125 3.375 1.125 3.375 0 0 Z " fill="#C93143" transform="translate(161,320)"/>
<path d="M0 0 C0.33 0 0.66 0 1 0 C1.04898438 0.65226562 1.09796875 1.30453125 1.1484375 1.9765625 C1.57242229 6.93279853 2.15665573 11.33019451 4 16 C3.01 15.67 2.02 15.34 1 15 C-0.09506492 11.71480525 -0.09960608 9.26336585 -0.0625 5.8125 C-0.05347656 4.72582031 -0.04445312 3.63914062 -0.03515625 2.51953125 C-0.02355469 1.68808594 -0.01195312 0.85664062 0 0 Z " fill="#C33647" transform="translate(229,68)"/>
<path d="M0 0 C4.875 4.75 4.875 4.75 6 7 C3.625 6.6875 3.625 6.6875 1 6 C0.34 5.01 -0.32 4.02 -1 3 C-0.67 2.01 -0.34 1.02 0 0 Z " fill="#C93444" transform="translate(126,233)"/>
<path d="M0 0 C2.9719385 1.12451727 5.33440687 2.22293791 8 4 C7.67 5.32 7.34 6.64 7 8 C5.83035398 6.8572081 4.66435444 5.71068285 3.5 4.5625 C2.8503125 3.92441406 2.200625 3.28632813 1.53125 2.62890625 C0 1 0 1 0 0 Z " fill="#C53A48" transform="translate(147,185)"/>
<path d="M0 0 C0.33 0 0.66 0 1 0 C0.25 6.75 0.25 6.75 -2 9 C-2.99 8.67 -3.98 8.34 -5 8 C-4.54625 7.4225 -4.0925 6.845 -3.625 6.25 C-2.15886484 4.2199667 -1.05142216 2.26460157 0 0 Z " fill="#FEE9ED" transform="translate(122,77)"/>
<path d="M0 0 C6.15234375 0.5859375 6.15234375 0.5859375 8 1 C8.33 1.66 8.66 2.32 9 3 C7.948125 2.938125 6.89625 2.87625 5.8125 2.8125 C1.84183507 3.0077786 0.15803031 3.70325068 -3 6 C-3 5.01 -3 4.02 -3 3 C-2.34 3 -1.68 3 -1 3 C-0.67 2.01 -0.34 1.02 0 0 Z " fill="#FCDAE1" transform="translate(114,35)"/>
<path d="M0 0 C2.97 0.495 2.97 0.495 6 1 C6.33 2.98 6.66 4.96 7 7 C5.83040013 6.02433888 4.66438823 5.044375 3.5 4.0625 C2.8503125 3.51722656 2.200625 2.97195312 1.53125 2.41015625 C1.0259375 1.94480469 0.520625 1.47945312 0 1 C0 0.67 0 0.34 0 0 Z " fill="#C83C4D" transform="translate(137,223)"/>
<path d="M0 0 C0.33 0 0.66 0 1 0 C1 2.97 1 5.94 1 9 C-0.98 7.35 -2.96 5.7 -5 4 C-4.34 3.67 -3.68 3.34 -3 3 C-2.34 3.33 -1.68 3.66 -1 4 C-0.67 2.68 -0.34 1.36 0 0 Z " fill="#AD434F" transform="translate(170,200)"/>
<path d="M0 0 C1.99965715 0.03703069 4.00056665 0.04760556 6 0 C4 2 4 2 1.6875 2.265625 C0.800625 2.26046875 -0.08625 2.2553125 -1 2.25 C-2.3303125 2.25773437 -2.3303125 2.25773437 -3.6875 2.265625 C-6 2 -6 2 -8 0 C-5.13118749 -1.43440626 -3.12952645 -0.54164881 0 0 Z " fill="#FCD6DB" transform="translate(153,77)"/>
<path d="M0 0 C1.65 1.65 3.3 3.3 5 5 C1.25 6.125 1.25 6.125 -1 5 C-0.67 3.35 -0.34 1.7 0 0 Z " fill="#FDE0E7" transform="translate(138,292)"/>
<path d="M0 0 C2.38672669 2.96283313 4.7353371 5.94270509 7 9 C5.68 8.67 4.36 8.34 3 8 C2.67 6.68 2.34 5.36 2 4 C1.34 4 0.68 4 0 4 C0 2.68 0 1.36 0 0 Z " fill="#C53E4B" transform="translate(136,245)"/>
<path d="M0 0 C0.99 0.33 1.98 0.66 3 1 C0.36 2.65 -2.28 4.3 -5 6 C-5.33 4.68 -5.66 3.36 -6 2 C-4.68 2.33 -3.36 2.66 -2 3 C-2 2.34 -2 1.68 -2 1 C-1.34 0.67 -0.68 0.34 0 0 Z " fill="#FDDAE2" transform="translate(212,72)"/>
<path d="M0 0 C2.6486859 3.19668988 4.93992341 6.39486597 7 10 C3.57730016 8.85910005 2.2477854 7.79035429 0 5 C-0.25 2.25 -0.25 2.25 0 0 Z " fill="#C4384A" transform="translate(187,67)"/>
<path d="M0 0 C0.33 0 0.66 0 1 0 C0.67 4.29 0.34 8.58 0 13 C-0.33 13 -0.66 13 -1 13 C-1.2236337 11.58566794 -1.42826476 10.16832382 -1.625 8.75 C-1.74101562 7.96109375 -1.85703125 7.1721875 -1.9765625 6.359375 C-2.00319395 3.67847541 -1.36592084 2.27305911 0 0 Z " fill="#BB3448" transform="translate(231,55)"/>
<path d="M0 0 C1 3 1 3 0 6 C-2.97 6 -5.94 6 -9 6 C-9 5.67 -9 5.34 -9 5 C-7.88625 4.731875 -6.7725 4.46375 -5.625 4.1875 C-1.78159049 3.34190981 -1.78159049 3.34190981 0 0 Z " fill="#FDDBE1" transform="translate(243,46)"/>
<path d="M0 0 C3 1 3 1 4.0625 3 C4.371875 3.66 4.68125 4.32 5 5 C5.66 5.33 6.32 5.66 7 6 C6.67 6.99 6.34 7.98 6 9 C4.99406757 7.8803014 3.9954151 6.7540588 3 5.625 C2.443125 4.99851562 1.88625 4.37203125 1.3125 3.7265625 C0 2 0 2 0 0 Z " fill="#BF3846" transform="translate(154,311)"/>
<path d="M0 0 C0.33 0 0.66 0 1 0 C1.125 3.375 1.125 3.375 1 7 C0.34 7.66 -0.32 8.32 -1 9 C-1.99 9 -2.98 9 -4 9 C-4 8.01 -4 7.02 -4 6 C-2.68 6 -1.36 6 0 6 C0 4.02 0 2.04 0 0 Z " fill="#C62B3C" transform="translate(184,27)"/>
<path d="M0 0 C2.475 0.495 2.475 0.495 5 1 C5 2.65 5 4.3 5 6 C3.2925002 4.71937515 1.62626404 3.38232443 0 2 C0 1.34 0 0.68 0 0 Z " fill="#FDDBE3" transform="translate(139,248)"/>
<path d="M0 0 C2.475 0.495 2.475 0.495 5 1 C5.33 2.65 5.66 4.3 6 6 C3.97945196 4.35830472 1.97956942 2.69088222 0 1 C0 0.67 0 0.34 0 0 Z " fill="#F7CCD1" transform="translate(107,203)"/>
<path d="M0 0 C2.5 2.3125 2.5 2.3125 5 5 C5 5.99 5 6.98 5 8 C2.5 6.25 2.5 6.25 0 4 C0 2.68 0 1.36 0 0 Z " fill="#B26E78" transform="translate(89,71)"/>
<path d="M0 0 C1.80330533 3.60661066 2.46599103 6.08393425 3 10 C2.01 9.67 1.02 9.34 0 9 C0 6.03 0 3.06 0 0 Z " fill="#C94252" transform="translate(179,42)"/>
<path d="M0 0 C0.99 0.99 1.98 1.98 3 3 C2.34 4.65 1.68 6.3 1 8 C0.01 7.67 -0.98 7.34 -2 7 C-1.34 4.69 -0.68 2.38 0 0 Z " fill="#FBD7D9" transform="translate(186,27)"/>
</svg>
