<svg xmlns="http://www.w3.org/2000/svg" xmlns:xlink="http://www.w3.org/1999/xlink" xmlns:inkscape="http://www.inkscape.org/namespaces/inkscape" version="1.1" width="85.0394" height="85.0394" viewBox="0 0 85.0394 85.0394">
<g inkscape:groupmode="layer" inkscape:label="Layer 1">
<path transform="matrix(1,0,0,-1,0,85.0394)" d="M21.6737 42.4423C21.8605 42.1486 22.3724 41.7076 22.6542 41.4235 22.9938 41.0811 23.2846 40.7931 23.6251 40.4515 24.9174 39.155 34.3074 29.8882 34.3967 29.6164 34.4721 29.3862 34.4316 24.2008 34.4228 23.762 34.1172 23.9437 32.9737 25.5529 32.7546 25.8321L28.8278 30.901C28.563 31.2415 28.1381 31.6959 28.099 32 28.0329 32.5134 28.2662 33.3836 28.0015 33.7465 27.8518 33.952 27.3197 34.4265 27.1018 34.6445 26.4331 35.3132 21.9711 39.8605 21.6343 40.0357 21.6164 37.7456 21.6337 35.4475 21.6337 33.1566 21.6337 29.0812 21.1204 30.3066 23.0596 27.796L31.9717 16.2697C32.6069 15.4568 40.589 5.0168 40.8966 4.8351 40.9499 13.7205 40.8668 22.6145 40.8983 31.5014 40.9017 32.4856 40.966 32.2733 40.4357 32.7937L29.677 43.5526C29.321 43.9112 28.2512 44.8826 28.0352 45.2537L28.0894 48.964C28.4312 49.0689 34.0483 49.0805 34.4418 48.9682 34.6363 47.253 34.2592 42.2099 34.5039 41.0717L40.7979 34.7811C40.9901 34.8695 40.8685 53.5527 40.8563 55.4031L21.6811 55.4139Z" fill="#e40025" fill-rule="evenodd"/>
<path transform="matrix(1,0,0,-1,0,85.0394)" d="M50.2413 41.3762C50.1636 41.4482 50.1789 41.3858 50.1525 41.5721 50.1511 41.5817 50.1531 41.7654 50.1534 41.7892 50.1642 43.4132 50.0856 48.1776 50.1758 48.9702 50.5429 49.0802 56.075 49.0796 56.5543 48.9821 56.6532 48.3585 56.6478 41.6509 56.5197 41.3164L50.442 41.3158C50.0814 41.309 50.3237 41.3124 50.2413 41.3762ZM54.6868 18.9544C54.9309 19.133 56.0409 20.6518 56.2294 20.8919 58.1902 23.3881 60.2793 26.2293 62.2239 28.6427 63.2154 29.8732 62.9838 29.4704 62.9861 31.2854 62.9875 32.3844 63.2769 32.0726 61.5804 33.3558 61.285 33.5792 59.8482 34.6592 59.7214 34.8772L62.9858 34.8795 62.9847 55.4258 43.7394 55.4145 43.759 4.8161 45.7152 7.2981C46.942 8.9467 48.384 10.6758 49.6086 12.3287 50.129 13.0306 50.1934 12.8049 50.1917 13.9414 50.1905 14.6852 50.1917 15.429 50.1917 16.1725 50.1917 17.6547 50.1109 32.989 50.2104 34.014 50.4541 33.8981 55.0599 30.2814 55.1682 30.134 54.9635 29.7329 54.6854 29.706 54.6741 29.1322 54.6647 28.6588 54.6789 28.1633 54.6789 27.6871 54.6789 24.9361 54.5995 21.5654 54.6868 18.9544" fill-rule="evenodd"/>
<path transform="matrix(1,0,0,-1,0,85.0394)" d="M24.385 64.7901C24.2209 64.6963 24.3351 64.7694 24.105 64.7552 23.889 64.7422 23.6511 64.5897 23.5672 64.4071 23.6188 64.1823 23.8303 63.9397 23.9899 63.7013 24.1534 63.4569 24.3079 63.2211 24.4777 62.9654 25.35 61.6524 26.4192 59.758 26.9923 58.278L57.7157 58.267C58.3061 60.0276 60.2892 63.0519 60.3329 63.2611 60.2759 63.3852 60.0849 63.559 60.3743 63.8739 60.4726 63.9808 60.5492 64.0403 60.5823 64.1985 60.5866 64.2178 60.5869 64.241 60.5894 64.2591 60.592 64.2804 60.5928 64.3657 60.5889 64.3895 60.391 64.4638 60.4159 64.5313 60.1486 64.3623 60.1376 64.3558 60.1248 64.3371 60.1155 64.33L59.9888 64.2348C59.6625 64.1322 60.0908 64.2949 59.7098 64.2053 59.5633 64.1707 59.5641 64.131 59.294 64.1021L59.1503 63.7424H59.4377C59.3745 63.8246 59.201 63.8127 59.0825 63.8039 58.9076 63.7914 58.9521 63.741 58.7086 63.8521 58.7069 63.8529 58.5618 63.936 58.553 63.9394 57.8503 63.9604 57.0421 63.6593 56.1705 64.506 55.6277 65.033 55.3051 65.5957 55.1392 66.5651 54.8169 68.4502 55.7637 71.2281 55.7314 71.9802 55.6543 72.2803 55.7107 72.0703 55.6634 72.1905L55.578 72.3934C55.5744 72.4224 55.5627 72.4323 55.5514 72.4496 55.3796 72.3362 55.4797 72.54 55.3221 72.2344 55.2192 72.1593 54.7914 71.3923 54.6551 71.1873 53.4291 69.3471 49.445 65.1881 47.2873 66.0609 45.9187 66.6145 44.9141 68.5709 44.2466 70.215 43.808 71.2942 42.7561 74.7969 42.7215 75.9898 43.6708 76.2185 44.6451 76.8875 44.5368 78.0588 44.3234 80.3633 40.5635 80.4053 40.2094 78.2084 39.9348 76.5028 41.6052 76.1644 41.9185 75.9535 42.0642 75.0855 40.7546 71.0544 40.4082 70.1062 39.7585 68.3306 38.8536 66.4906 37.061 66.0413 35.4515 65.6379 34.2533 66.5728 33.1019 67.4889 32.7399 67.7769 32.487 68.1072 32.2186 68.4757 31.6854 69.2073 31.1709 69.8865 30.6241 70.6226 30.3043 71.0535 29.355 72.3149 29.1492 72.8819 29.5631 73.4199 30.5824 73.8045 29.9786 75.0883 29.1274 76.8971 25.7987 76.0691 26.4095 73.9689 26.7004 72.9709 27.5139 72.7977 28.6634 72.7543 29.2564 70.7434 29.9228 68.262 29.4086 65.9163 28.8119 63.1925 26.4917 63.6279 24.7224 64.652 24.493 64.785 24.5948 64.7626 24.385 64.7901ZM58.553 63.9394C58.5618 63.936 58.7069 63.8529 58.7086 63.8521 58.9521 63.741 58.9076 63.7914 59.0825 63.8039 59.201 63.8127 59.3745 63.8246 59.4377 63.7424H59.1503L59.294 64.1021C59.5641 64.131 59.5633 64.1707 59.7098 64.2053 60.0908 64.2949 59.6625 64.1322 59.9888 64.2348L60.1155 64.33C60.1248 64.3371 60.1376 64.3558 60.1486 64.3623 60.4159 64.5313 60.391 64.4638 60.5889 64.3895 60.5928 64.3657 60.592 64.2804 60.5894 64.2591 60.5869 64.241 60.5866 64.2178 60.5823 64.1985 60.5492 64.0403 60.4726 63.9808 60.3743 63.8739 60.0849 63.559 60.2759 63.3852 60.3329 63.2611 60.5066 63.3728 62.1901 65.8154 62.892 66.5495 63.1145 66.7831 63.1573 66.8407 63.3334 67.0445 63.4759 67.2097 63.7027 67.4739 63.8277 67.5797 64.7816 67.587 65.3332 67.5201 65.6872 68.2143 66.4472 69.7025 64.3859 70.7978 63.3223 69.6458 62.5839 68.8456 63.2157 68.2923 63.4535 67.7721 62.9566 66.8648 60.6591 64.9369 59.3561 64.3314 59.22 64.2685 59.1117 64.2223 58.9527 64.1571 58.9048 64.1373 58.7852 64.0902 58.7458 64.0689ZM55.3221 72.2344C55.4797 72.54 55.3796 72.3362 55.5514 72.4496 55.5627 72.4323 55.5744 72.4224 55.578 72.3934L55.6634 72.1905C55.7107 72.0703 55.6543 72.2803 55.7314 71.9802L56.0407 72.752C57.1782 72.79 57.9419 73.0188 58.2732 73.9049 59.0204 75.9019 55.7104 76.9876 54.7398 75.1314 54.5199 74.7105 54.4598 74.1963 54.7109 73.7697 54.9842 73.3062 55.2569 73.2356 55.5542 72.8819ZM23.5672 64.4071C23.6511 64.5897 23.889 64.7422 24.105 64.7552 24.3351 64.7694 24.2209 64.6963 24.385 64.7901 24.2875 64.9341 21.9161 66.6808 21.2539 67.7721 21.3225 67.9578 22.1717 68.8391 21.369 69.6453 20.9106 70.1062 20.1152 70.2592 19.4584 69.8981 18.934 69.6101 18.5562 68.9457 18.949 68.235 19.3209 67.5621 19.8918 67.5581 20.8638 67.5802 21.0441 67.4374 21.3883 67.0085 21.5555 66.8075Z" fill="#e40025" fill-rule="evenodd"/>
</g>
</svg>
